<svg xmlns="http://www.w3.org/2000/svg" viewBox="0 0 882.01 456.42"><g id="Capa_2" data-name="Capa 2"><g id="Capa_1-2" data-name="Capa 1"><path d="M0,0V456.42H882V0ZM41,52.31A11.33,11.33,0,0,1,52.31,41h54a11.33,11.33,0,0,1,11.33,11.33v.39A11.32,11.32,0,0,1,106.26,64H64V96A11.32,11.32,0,0,1,52.7,107.35h-.4A11.33,11.33,0,0,1,41,96V52.31Zm76.61,351.81a11.33,11.33,0,0,1-11.33,11.33H52.31A11.33,11.33,0,0,1,41,404.12V360.41a11.33,11.33,0,0,1,11.33-11.33h.4A11.32,11.32,0,0,1,64,360.41v32h42.23a11.32,11.32,0,0,1,11.33,11.32Zm11.94-138.9a37,37,0,1,1,37-37A37,37,0,0,1,129.53,265.22Zm470.33,30.83a173.1,173.1,0,1,1,13.85-67.84A172.74,172.74,0,0,1,599.86,296.05Zm115.62-67.84a37,37,0,1,1,37,37A37,37,0,0,1,715.48,228.21ZM841,404.12a11.32,11.32,0,0,1-11.32,11.33h-54a11.33,11.33,0,0,1-11.33-11.33v-.4a11.32,11.32,0,0,1,11.33-11.32H818v-32a11.32,11.32,0,0,1,11.32-11.33h.4A11.32,11.32,0,0,1,841,360.41v43.71ZM841,96a11.32,11.32,0,0,1-11.32,11.33h-.4A11.32,11.32,0,0,1,818,96V64H775.75A11.32,11.32,0,0,1,764.42,52.7v-.39A11.33,11.33,0,0,1,775.75,41h54A11.33,11.33,0,0,1,841,52.31V96Z"/><path d="M451.14,219.43V159.31c.58.19,1.16.37,1.74.58,11.27,4.13,18.26,16.35,18.45,28,.23,13.53,21.23,13.55,21,0C492,168,480.59,149.33,462.2,141.2a51.76,51.76,0,0,0-11.06-3.49V127c0-13.54-21-13.54-21,0v11a52.58,52.58,0,0,0-25.42,13.68c-14.35,13.89-18.89,36.55-11.45,55a51.86,51.86,0,0,0,36.87,31.34v60c-.34-.11-.67-.21-1-.33-11.27-4.13-18.26-16.35-18.45-28-.23-13.53-21.23-13.55-21,0,.33,19.88,11.73,38.55,30.13,46.68a52.85,52.85,0,0,0,10.32,3.34v9.83c0,13.54,21,13.54,21,0v-9.73a52.49,52.49,0,0,0,26.16-13.83c14.34-13.89,18.89-36.55,11.45-55A51.91,51.91,0,0,0,451.14,219.43ZM413,199.68c-5.27-11-1.64-24.76,6.58-33.24a28.33,28.33,0,0,1,10.57-6.88v56.55C422.69,213.21,416.74,207.45,413,199.68Zm49.46,91.38a28.26,28.26,0,0,1-11.31,7.16V241.13c7.78,2.79,14,8.66,17.88,16.69C474.3,268.77,470.67,282.58,462.45,291.06Z"/></g></g></svg>