<svg xmlns="http://www.w3.org/2000/svg" viewBox="0 0 84.4 83.37"><g id="Capa_2" data-name="Capa 2"><g id="Capa_1-2" data-name="Capa 1"><path d="M82.76,53.87a5.94,5.94,0,0,0-6.47-1.45,37.71,37.71,0,0,0-8.8,5.16A15.85,15.85,0,0,1,62.4,60a5.82,5.82,0,0,0-1.83-5.68,4.61,4.61,0,0,0-2.45-.9C53.29,53,46.32,51,38.48,47.84c-10.29-4.11-22.08,5.57-22.58,6a1.13,1.13,0,0,0-.22.28l-.86-1.49a1.57,1.57,0,0,0-2.14-.57L.79,58.92a1.57,1.57,0,0,0-.74.95,1.59,1.59,0,0,0,.16,1.19L12.65,82.59a1.56,1.56,0,0,0,1.36.78,1.59,1.59,0,0,0,.78-.2l11.89-6.86a1.55,1.55,0,0,0,.73-1,1.59,1.59,0,0,0-.15-1.19l-1-1.69c3.83-1.53,8.47-.76,14.17.19a79,79,0,0,0,13.27,1.42,41.43,41.43,0,0,0,5.36-.33c10.23-1.26,18.35-6.9,23.39-11.43A6,6,0,0,0,84.4,58a5.88,5.88,0,0,0-1.63-4.07ZM14.57,79.66,3.69,60.83l9.19-5.32,9.81,17s0,0,0,0l0,0,1,1.74-9.19,5.29ZM80.37,60c-3.83,3.44-11.74,9.41-21.68,10.64-6.5.81-12.46-.19-17.71-1.08-6.16-1-11.54-1.92-16.27.16L17.1,56.53a1.36,1.36,0,0,0,.81-.33c.11-.09,10.86-8.89,19.41-5.47C45.43,54,52.72,56,57.85,56.47a1.48,1.48,0,0,1,.84.28,2.82,2.82,0,0,1,.64,2.69.17.17,0,0,1,0,.07,2.18,2.18,0,0,1-1.22,1.36,65.82,65.82,0,0,1-14.3.24,1.55,1.55,0,1,0-.34,3.09,67.68,67.68,0,0,0,11.3.16h0c5.12-.38,10.84-1.47,14.59-4.28a33.44,33.44,0,0,1,8.05-4.74,2.81,2.81,0,0,1,3.08.69A2.74,2.74,0,0,1,81.27,58a2.83,2.83,0,0,1-.89,2Z"/><path d="M33,20.31l-1.64,9.55A1.58,1.58,0,0,0,32,31.39a1.61,1.61,0,0,0,1.64.13L42.2,27l8.57,4.52a1.63,1.63,0,0,0,.74.17,1.56,1.56,0,0,0,1.54-1.83l-1.64-9.55,6.94-6.76a1.58,1.58,0,0,0-.87-2.68l-9.6-1.39L43.59.8a1.62,1.62,0,0,0-2.8,0l-4.3,8.68L26.9,10.87a1.56,1.56,0,0,0-1.27,1.07A1.61,1.61,0,0,0,26,13.55L33,20.31Zm4.78-7.84A1.54,1.54,0,0,0,39,11.61L42.2,5l3.25,6.59a1.57,1.57,0,0,0,1.17.86l7.26,1.06-5.26,5.13a1.59,1.59,0,0,0-.46,1.39l1.24,7.23-6.5-3.42a1.51,1.51,0,0,0-.74-.17,1.7,1.7,0,0,0-.73.17l-6.5,3.42,1.23-7.23a1.52,1.52,0,0,0-.45-1.39l-5.26-5.13,7.26-1.06Z"/><path d="M6,33.27l-1.2,7a1.59,1.59,0,0,0,.62,1.53,1.55,1.55,0,0,0,.93.29A1.7,1.7,0,0,0,7.1,42l6.31-3.31L19.73,42a1.52,1.52,0,0,0,1.64-.12A1.56,1.56,0,0,0,22,40.3l-1.2-7,5.11-5A1.57,1.57,0,0,0,25,25.61l-7.06-1L14.8,18.19a1.61,1.61,0,0,0-2.79,0L8.85,24.58l-7.06,1A1.58,1.58,0,0,0,.52,26.67a1.6,1.6,0,0,0,.39,1.61Zm4.08-5.71a1.52,1.52,0,0,0,1.17-.86l2.13-4.29,2.12,4.29a1.59,1.59,0,0,0,1.17.86l4.74.69L18,31.59A1.6,1.6,0,0,0,17.55,33l.82,4.72-4.24-2.23a1.55,1.55,0,0,0-1.45,0L8.44,37.7,9.26,33a1.55,1.55,0,0,0-.46-1.39L5.38,28.25l4.74-.69Z"/><path d="M58.12,26.67a1.58,1.58,0,0,0,.39,1.61l5.11,5-1.21,7A1.57,1.57,0,0,0,64.68,42L71,38.64,77.3,42a1.51,1.51,0,0,0,.74.17,1.55,1.55,0,0,0,.92-.29,1.57,1.57,0,0,0,.63-1.53l-1.21-7,5.11-5a1.57,1.57,0,0,0,.39-1.61,1.55,1.55,0,0,0-1.26-1.06l-7.07-1L72.4,18.19a1.62,1.62,0,0,0-2.8,0l-3.15,6.39-7.07,1a1.55,1.55,0,0,0-1.26,1.06Zm9.58.89a1.54,1.54,0,0,0,1.17-.86L71,22.41l2.13,4.29a1.57,1.57,0,0,0,1.17.86l4.73.69L75.6,31.59A1.59,1.59,0,0,0,75.15,33L76,37.7l-4.23-2.23A1.51,1.51,0,0,0,71,35.3a1.7,1.7,0,0,0-.73.17L66,37.7,66.84,33a1.55,1.55,0,0,0-.46-1.39L63,28.25Z"/></g></g></svg>