<svg xmlns="http://www.w3.org/2000/svg" viewBox="0 0 416.61 444"><defs><style>.cls-1{fill-rule:evenodd;}</style></defs><g id="Capa_2" data-name="Capa 2"><g id="Capa_1-2" data-name="Capa 1"><path class="cls-1" d="M150.8,309,52.71,208.93q-.35-.36-.66-.75a28.33,28.33,0,0,1,42.52-37.37c3.73,3.55,57.61,54.8,77.42,70.59,7.41,5.9,19.76,8.92,37.81,8.92h1c18,0,30.39-3,37.8-8.92,19.81-15.79,73.69-67,77.41-70.58a28.27,28.27,0,0,1,48.79,19.57,27.28,27.28,0,0,1-6.58,18.18c-21,23.63-82.87,85.08-97.42,99.49v55.5c0,17.09-.08,29.06-1.49,37.43-1.3,7.69-3.8,13.05-7.4,17-3.78,4.11-8.9,6.9-16.3,8.38-7.79,1.55-18.92,1.66-34.81,1.66s-27-.11-34.82-1.66c-7.4-1.48-12.52-4.27-16.3-8.38-3.6-3.92-6.1-9.28-7.4-17-1.41-8.37-1.48-20.34-1.48-37.43Zm59.5-38.69-.5,0c-24.15,0-40.36-5.38-50.27-13.28C138.65,240.4,80.58,185.1,80.58,185.1c-.16-.14-.3-.29-.45-.45a8.18,8.18,0,0,0-6-2.65,8.4,8.4,0,0,0-6.68,13.35L165,294.94A10,10,0,0,1,170.8,304v59.56c0,13.17,0,23.05.73,30.46.49,4.85.9,8.26,2.88,10.41,1.78,1.94,4.67,2.31,8.68,2.79,6.74.82,15.73.78,27.71.78s21,0,27.7-.78c4-.48,6.9-.85,8.68-2.79,2-2.15,2.39-5.56,2.89-10.41.75-7.41.73-17.29.73-30.46V305.51a10,10,0,0,1,2.86-8.63s76-75,99.6-101.59h0a7.25,7.25,0,0,0,1.53-4.89,8.34,8.34,0,0,0-8.3-8.39,8.22,8.22,0,0,0-6,2.65,6.25,6.25,0,0,1-.44.45S281.94,240.4,261.07,257c-9.92,7.9-26.12,13.28-50.27,13.28ZM189,121.79a16.67,16.67,0,0,1-3.34,4.23c-3.88,3.54-10.06,5-20.85,5s-17-1.44-20.86-5c-2.86-2.61-5.16-6.52-6.19-13.2-.88-5.76-.95-14.76-.95-28.82s.07-23.06.95-28.82c1-6.68,3.33-10.59,6.19-13.19,3.88-3.55,10.07-5,20.86-5s17,1.44,20.85,5l.68.65A23.33,23.33,0,0,0,193.7,26.4v-.3s0-.41,0-.42a26.06,26.06,0,0,1,52.12.24v7.26a46.22,46.22,0,0,1-2,14.5h5.53c13.51.1,20.84,2.07,25.11,6,4.46,4.06,7,11.12,7.22,24.9L281.8,86v0c0,16.12-7.95,25.66-19.92,31.29C248,123.82,227.1,124,209.39,124l-4.22-.08A51.35,51.35,0,0,1,189,121.79ZM172.49,62.6a52.42,52.42,0,0,0-.7-5.34c-1.61-.1-4.47-.26-7-.26s-5.39.16-7,.26a52.09,52.09,0,0,0-.74,5.89c-.27,5.07-.26,11.83-.26,20.85s0,15.78.26,20.85a52.09,52.09,0,0,0,.74,5.89c1.61.1,4.47.26,7,.26s5.38-.16,7-.26a52.09,52.09,0,0,0,.74-5.89c.08-1.52.14-3.2.18-5l0-.26C171.68,91.29,172.43,79.36,172.49,62.6Zm20.22,36.23a6.39,6.39,0,0,0,1.19,3.25c.65.8,1.77,1,3.17,1.25a42.37,42.37,0,0,0,8.21.59l4.29.08c12.57,0,27.09.3,38.47-2.89C255.72,99,261.79,95,261.8,86c0,0-.05-7.21-.05-7.24-.05-3-.15-5.54-.39-7.66a22.51,22.51,0,0,0-.5-2.5,102.4,102.4,0,0,0-11.58-.9H246l-8.37,0h0a41.29,41.29,0,0,1-9.58-.9,11.33,11.33,0,0,1-6.92-5,10.8,10.8,0,0,1-1.25-9.27,21.4,21.4,0,0,1,1.85-4.19,26.77,26.77,0,0,0,4.16-15V26a6.06,6.06,0,0,0-12.12.14v.47s-.06.73-.07.74C213,46,200.57,57.49,192.53,63c.24,5.29.27,12.15.27,21C192.8,89.75,192.78,94.65,192.71,98.83ZM210.8,237a49,49,0,1,1,49-49A49,49,0,0,1,210.8,237Zm0-20a29,29,0,1,0-29-29A29,29,0,0,0,210.8,217ZM334.3,374c-25.72,0-46.5-20.63-46.5-46s20.78-46,46.5-46,46.5,20.63,46.5,46S360,374,334.3,374Zm0-20c14.59,0,26.5-11.6,26.5-26s-11.91-26-26.5-26a26,26,0,1,0,0,52ZM84.8,374a46,46,0,1,1,46-46A46,46,0,0,1,84.8,374Zm0-20a26,26,0,1,0-26-26A26,26,0,0,0,84.8,354Zm238.63,48.28a10,10,0,0,1-1.27-20q5-.31,10.5-.32c31.26,0,50.71,8.16,62.95,17.87a58.41,58.41,0,0,1,20.69,31.69,10,10,0,1,1-19.39,4.88c-3.05-12.11-16-34.44-64.25-34.44C329.44,402,326.36,402.1,323.43,402.28Zm-228-20a10,10,0,1,1-1.25,20c-3-.18-6.09-.28-9.35-.28-48.88,0-62,22.34-65.13,34.47A10,10,0,0,1,.31,431.53a58.32,58.32,0,0,1,20.93-31.7C33.6,390.14,53.24,382,84.82,382Q90.37,382,95.42,382.32Z"/></g></g></svg>