
<svg version="1.1" id="Capa_2" xmlns="http://www.w3.org/2000/svg" x="0px" y="0px"
	 viewBox="0 0 992.1 1559.1" xml:space="preserve">
<path fill="#7c924f" d="M856.6,708.1c0.1,39.6-3.1,78.9-9.7,118.1c-10.5,63.2-29.3,123.9-55.6,182.2c-21.6,48-49,92.6-83.1,133.1
	c-16.7,19.8-33.9,39-53.5,56c-41.3,35.8-85.1,67.9-135.1,90.8c-3.9,1.8-7.6,4.3-11.6,5.8c-2.2,0.8-5.2,0.9-7.3,0
	c-42.9-19.6-82.6-44.6-119.5-73.9c-30.6-24.3-58.3-51.5-83.2-81.8c-32.3-39.3-58.4-82.2-79.7-128.2c-21-45.4-37-92.7-47.8-141.6
	c-6-27.4-10.8-55.1-14-82.9c-3.2-28-3.7-56.4-5.1-84.6c-0.4-7.8,0.6-15.6,0.8-23.4c0.1-3,1.7-3.4,4.1-3.7
	c19.1-2.5,38.2-4.8,57.2-7.7c30.3-4.7,59.7-13,88.6-23.1c53.4-18.7,103.6-43.9,150.6-75.3c16.6-11.1,31.8-24.1,47.4-36.6
	c3.3-2.7,5.3-2.5,8.4,0.1c69.5,59.5,149.7,98.6,237.1,124c26.8,7.8,54.3,12.7,82.1,15.8c8.3,0.9,16.5,2,24.8,2.8
	c3,0.3,4,1.5,3.9,4.4C856.5,688.1,856.6,698.1,856.6,708.1z M802.9,734.3c-0.1,0-0.3,0-0.4,0c0-1.8-0.4-3.8,0.1-5.5
	c1.1-4.6-0.8-6.1-5.2-6.8c-7.7-1.1-15.4-2.7-23-4.2c-46.6-9.5-91.6-24.2-135.2-43.1c-46.1-20-89.6-44.7-130.6-74
	c-3.1-2.2-5.1-2-8.2,0c-18.1,11.9-36,24.1-54.6,35.2C396,665.7,343,688.5,287.3,704.5c-25,7.2-50.7,11.9-76.2,17.5
	c-3.9,0.9-5.2,2.1-4.7,6.3c1.1,9.9,1.2,19.9,2.3,29.8c2.2,21,3.7,42.1,7.5,62.8c12.7,69.8,35.1,136.4,68.3,199.3
	c30.9,58.3,72.1,108.2,122.3,150.8c29.1,24.7,61,45.2,94.9,62.4c1.7,0.8,4.5,0.6,6.3-0.3c52.9-26.6,99.5-61.5,139.8-105
	c33.9-36.6,61.5-77.4,84-121.7c26.1-51.4,44.4-105.7,56.4-162.1c4.4-20.9,7.1-42.2,10-63.4C800.3,765.4,801.4,749.8,802.9,734.3z"/>
<path fill="#7c924f" d="M389.3,886.4c6,6.1,11.3,11.8,16.9,17.3c20.8,20.6,41.8,41.2,62.5,61.9c3.5,3.5,5.3,3.3,8.7-0.1
	c57.9-58.3,116-116.4,174-174.6c1.5-1.5,2.6-3.5,3.4-4.5c13.6,13.4,26.4,25.9,38.6,38c-73.3,73.3-147.1,147.1-221.2,221.2
	c-0.6-0.5-1.9-1.6-3.2-2.9c-38-37.9-75.9-75.8-114-113.6c-3.3-3.3-3.7-5.2-0.1-8.7c10.2-9.8,20.1-20,30.1-30
	C386.1,889.2,387.4,888.1,389.3,886.4z"/>
</svg>
