<svg xmlns="http://www.w3.org/2000/svg" viewBox="0 0 84.47 95.83"><g id="Capa_2" data-name="Capa 2"><g id="Capa_1-2" data-name="Capa 1"><path d="M42.72,91.83a2,2,0,1,1,0,4h-1a2,2,0,1,1,0-4ZM10.66,64.24H29.71V47.63a2,2,0,0,1,2-2h21a2,2,0,0,1,2,2v10H73.81a2,2,0,0,1,2,2V80.14h6.66a2,2,0,0,1,2,2V93.83a2,2,0,0,1-2,2H49.72a2,2,0,0,1,0-4H80.47V84.14H4v7.69H34.75a2,2,0,0,1,0,4H2a2,2,0,0,1-2-2V82.14a2,2,0,0,1,2-2H8.66V66.24a2,2,0,0,1,2-2ZM72.73,21.41a2,2,0,0,1,0-4h8.62a2,2,0,0,1,0,4Zm-6,13a2,2,0,0,1,2-3.46l7.26,4.2a2,2,0,1,1-2,3.45Zm2-26.45a2,2,0,0,1-2-3.45L73.94.27a2,2,0,1,1,2,3.45Zm-56.95,9.5a2,2,0,0,1,0,4H3.1a2,2,0,0,1,0-4Zm4,13.49a2,2,0,1,1,2,3.46l-7.25,4.19a2,2,0,1,1-2-3.45Zm2-26.44a2,2,0,1,1-2,3.45L8.52,3.72a2,2,0,1,1,2-3.45ZM44,3.39l4.7,8.73,9.75,1.77A2,2,0,0,1,60,16.2a1.94,1.94,0,0,1-.51,1l-6.85,7.17L54,34.21a2,2,0,0,1-1.71,2.25,2.05,2.05,0,0,1-1.13-.18L42.23,32l-8.93,4.3a2,2,0,0,1-2.66-.93,2,2,0,0,1-.18-1.18l1.33-9.77-6.85-7.17A2,2,0,0,1,25,14.41a2.06,2.06,0,0,1,1.11-.53l9.66-1.75,4.7-8.73A2,2,0,0,1,44,3.4Zm1.64,11.46-3.39-6.3-3.4,6.3a2,2,0,0,1-1.4,1l-7,1.28,5,5.18A2,2,0,0,1,35.87,24l-1,7.1L41.36,28a2,2,0,0,1,1.73,0l6.46,3.11-1-7.1a2,2,0,0,1,.53-1.64l5-5.18-6.94-1.26a2,2,0,0,1-1.51-1Zm9.13,46.77V80.14h17V61.62Zm-21,4.63V80.14h17V49.64h-17Zm-4,2h-17V80.14h17Z"/></g></g></svg>